#N canvas 142 102 1281 632 12;
#X obj 113 122 tgl 19 0 empty empty empty 0 -10 0 12 #fcfcfc #000000 #000000 0 1;
#X obj 142 122 tgl 19 0 empty empty empty 0 -10 0 12 #fcfcfc #000000 #000000 0 1;
#X obj 173 123 tgl 19 0 empty empty empty 0 -10 0 12 #fcfcfc #000000 #000000 0 1;
#X obj 204 122 tgl 19 0 empty empty empty 0 -10 0 12 #fcfcfc #000000 #000000 0 1;
#X msg 110 167 \$1 0;
#X obj 111 226 unpack;
#X floatatom 113 276 5 0 0 0 - - - 0;
#X floatatom 245 302 5 0 0 0 - - - 0;
#X msg 149 195 \$1 1;
#X msg 174 169 \$1 2;
#X msg 199 196 \$1 3;
#X obj 257 119 tgl 19 0 empty empty empty 0 -10 0 12 #fcfcfc #000000 #000000 0 1;
#X obj 286 119 tgl 19 0 empty empty empty 0 -10 0 12 #fcfcfc #000000 #000000 0 1;
#X obj 317 120 tgl 19 0 empty empty empty 0 -10 0 12 #fcfcfc #000000 #000000 0 1;
#X obj 348 119 tgl 19 0 empty empty empty 0 -10 0 12 #fcfcfc #000000 #000000 0 1;
#X msg 254 164 \$1 0;
#X obj 255 223 unpack;
#X msg 293 192 \$1 1;
#X msg 318 166 \$1 2;
#X msg 343 193 \$1 3;
#X obj 290 258 + 4;
#X obj 115 326 tabwrite \$1-seq;
#X obj 150 385 array define \$1-seq;
#X obj 391 120 tgl 19 0 empty empty empty 0 -10 0 12 #fcfcfc #000000 #000000 0 1;
#X obj 420 120 tgl 19 0 empty empty empty 0 -10 0 12 #fcfcfc #000000 #000000 0 1;
#X obj 451 121 tgl 19 0 empty empty empty 0 -10 0 12 #fcfcfc #000000 #000000 0 1;
#X obj 482 120 tgl 19 0 empty empty empty 0 -10 0 12 #fcfcfc #000000 #000000 0 1;
#X msg 388 165 \$1 0;
#X obj 389 224 unpack;
#X msg 427 193 \$1 1;
#X msg 452 167 \$1 2;
#X msg 477 194 \$1 3;
#X obj 535 117 tgl 19 0 empty empty empty 0 -10 0 12 #fcfcfc #000000 #000000 0 1;
#X obj 564 117 tgl 19 0 empty empty empty 0 -10 0 12 #fcfcfc #000000 #000000 0 1;
#X obj 595 118 tgl 19 0 empty empty empty 0 -10 0 12 #fcfcfc #000000 #000000 0 1;
#X obj 626 117 tgl 19 0 empty empty empty 0 -10 0 12 #fcfcfc #000000 #000000 0 1;
#X msg 532 162 \$1 0;
#X obj 533 221 unpack;
#X msg 571 190 \$1 1;
#X msg 596 164 \$1 2;
#X msg 621 191 \$1 3;
#X obj 400 254 + 8;
#X obj 546 258 + 12;
#X obj 659 110 bng 19 250 50 0 empty empty empty 0 -10 0 12 #fcfcfc #000000 #000000;
#X obj 660 133 bng 19 250 50 0 empty empty empty 0 -10 0 12 #fcfcfc #000000 #000000;
#X floatatom 660 156 2 0 0 0 - - - 0;
#X text 678 111 save;
#X text 680 135 load;
#X text 680 158 preset;
#X msg 1072 180 16;
#X obj 1026 181 bng 19 250 50 0 empty empty empty 0 -10 0 12 #fcfcfc #000000 #000000;
#X listbox 1030 244 20 0 0 0 - - - 0;
#X obj 1030 220 array get \$1-seq;
#X obj 652 303 s \$0-save;
#X msg 1188 319 clear;
#X obj 1030 267 list prepend add;
#X obj 969 478 textfile;
#X listbox 1030 291 20 0 0 0 - - - 0;
#X obj 1030 314 list trim;
#X obj 1027 80 r \$0-save;
#X obj 1027 104 t b b b b, f 23;
#X obj 883 239 r \$0-preset-no;
#X msg 837 317 write \$1-\$2.txt;
#X obj 830 278 pack s f;
#X obj 615 359 s \$0-preset-no;
#X obj 831 132 bng 19 250 50 0 empty empty empty 0 -10 0 12 #fcfcfc #000000 #000000;
#X obj 830 173 symbol \$1;
#X listbox 830 197 20 0 0 0 - - - 0;
#X obj 633 331 s \$0-load;
#X obj 229 -125 r \$0-load;
#X obj 229 -101 symbol \$1;
#X obj 228 -47 pack s f;
#X obj 228 6 textfile;
#X obj 315 -93 r \$0-preset-no;
#X listbox 228 33 20 0 0 0 - - - 0;
#X obj 228 56 unpack f f f f f f f f f f f f f f f f;
#X msg 228 -23 read \$1-\$2.txt \, rewind \, bang;
#X connect 0 0 4 0;
#X connect 1 0 8 0;
#X connect 2 0 9 0;
#X connect 3 0 10 0;
#X connect 4 0 5 0;
#X connect 5 0 6 0;
#X connect 5 1 7 0;
#X connect 6 0 21 0;
#X connect 7 0 21 1;
#X connect 8 0 5 0;
#X connect 9 0 5 0;
#X connect 10 0 5 0;
#X connect 11 0 15 0;
#X connect 12 0 17 0;
#X connect 13 0 18 0;
#X connect 14 0 19 0;
#X connect 15 0 16 0;
#X connect 16 0 6 0;
#X connect 16 1 20 0;
#X connect 17 0 16 0;
#X connect 18 0 16 0;
#X connect 19 0 16 0;
#X connect 20 0 7 0;
#X connect 23 0 27 0;
#X connect 24 0 29 0;
#X connect 25 0 30 0;
#X connect 26 0 31 0;
#X connect 27 0 28 0;
#X connect 28 0 6 0;
#X connect 28 1 41 0;
#X connect 29 0 28 0;
#X connect 30 0 28 0;
#X connect 31 0 28 0;
#X connect 32 0 36 0;
#X connect 33 0 38 0;
#X connect 34 0 39 0;
#X connect 35 0 40 0;
#X connect 36 0 37 0;
#X connect 37 0 6 0;
#X connect 37 1 42 0;
#X connect 38 0 37 0;
#X connect 39 0 37 0;
#X connect 40 0 37 0;
#X connect 41 0 7 0;
#X connect 42 0 7 0;
#X connect 43 0 53 0;
#X connect 44 0 68 0;
#X connect 45 0 64 0;
#X connect 49 0 52 1;
#X connect 50 0 52 0;
#X connect 51 0 55 0;
#X connect 52 0 51 0;
#X connect 54 0 56 0;
#X connect 55 0 57 0;
#X connect 57 0 58 0;
#X connect 58 0 56 0;
#X connect 59 0 60 0;
#X connect 60 0 66 0;
#X connect 60 1 50 0;
#X connect 60 2 49 0;
#X connect 60 3 54 0;
#X connect 61 0 63 1;
#X connect 62 0 56 0;
#X connect 63 0 62 0;
#X connect 65 0 66 0;
#X connect 66 0 67 0;
#X connect 67 0 63 0;
#X connect 69 0 70 0;
#X connect 70 0 71 0;
#X connect 71 0 76 0;
#X connect 72 0 74 0;
#X connect 73 0 71 1;
#X connect 74 0 75 0;
#X connect 75 0 0 0;
#X connect 75 1 1 0;
#X connect 75 2 2 0;
#X connect 75 3 3 0;
#X connect 75 4 11 0;
#X connect 75 5 12 0;
#X connect 75 6 13 0;
#X connect 75 7 14 0;
#X connect 75 8 23 0;
#X connect 75 9 24 0;
#X connect 75 10 25 0;
#X connect 75 11 26 0;
#X connect 75 12 32 0;
#X connect 75 13 33 0;
#X connect 75 14 34 0;
#X connect 75 15 35 0;
#X connect 76 0 72 0;
#X coords 0 -1 1 1 630 80 1 100 100;
