#N canvas 625 213 815 506 12;
#X obj 113 122 tgl 19 0 empty empty empty 0 -10 0 12 #fcfcfc #000000 #000000 0 1;
#X obj 142 122 tgl 19 0 empty empty empty 0 -10 0 12 #fcfcfc #000000 #000000 0 1;
#X obj 173 123 tgl 19 0 empty empty empty 0 -10 0 12 #fcfcfc #000000 #000000 0 1;
#X obj 204 122 tgl 19 0 empty empty empty 0 -10 0 12 #fcfcfc #000000 #000000 0 1;
#X msg 110 167 \$1 0;
#X obj 111 226 unpack;
#X floatatom 113 276 5 0 0 0 - - - 0;
#X floatatom 199 277 5 0 0 0 - - - 0;
#X msg 149 195 \$1 1;
#X msg 174 169 \$1 2;
#X msg 199 196 \$1 3;
#X obj 257 119 tgl 19 0 empty empty empty 0 -10 0 12 #fcfcfc #000000 #000000 0 1;
#X obj 286 119 tgl 19 0 empty empty empty 0 -10 0 12 #fcfcfc #000000 #000000 0 1;
#X obj 317 120 tgl 19 0 empty empty empty 0 -10 0 12 #fcfcfc #000000 #000000 0 1;
#X obj 348 119 tgl 19 0 empty empty empty 0 -10 0 12 #fcfcfc #000000 #000000 0 1;
#X msg 254 164 \$1 0;
#X obj 255 223 unpack;
#X msg 293 192 \$1 1;
#X msg 318 166 \$1 2;
#X msg 343 193 \$1 3;
#X obj 290 258 + 4;
#X obj 110 306 tabwrite \$1-seq;
#X obj 150 385 array define \$1-seq;
#X connect 0 0 4 0;
#X connect 1 0 8 0;
#X connect 2 0 9 0;
#X connect 3 0 10 0;
#X connect 4 0 5 0;
#X connect 5 0 6 0;
#X connect 5 1 7 0;
#X connect 6 0 21 0;
#X connect 7 0 21 1;
#X connect 8 0 5 0;
#X connect 9 0 5 0;
#X connect 10 0 5 0;
#X connect 11 0 15 0;
#X connect 12 0 17 0;
#X connect 13 0 18 0;
#X connect 14 0 19 0;
#X connect 15 0 16 0;
#X connect 16 0 6 0;
#X connect 16 1 20 0;
#X connect 17 0 16 0;
#X connect 18 0 16 0;
#X connect 19 0 16 0;
#X connect 20 0 7 0;
#X coords 0 -1 1 1 300 60 1 100 100;
