#N canvas 649 56 791 530 12;
#X obj 135 65 adc~;
#X obj 135 89 env~;
#X obj 135 113 *~ 100;
#X obj 27 118 f;
#X obj 27 142 s radius;
#X obj 29 17 Gem;
#X obj 171 144 gemhead;
#X msg 253 30 create \, 1;
#X obj 253 54 gemwin;
#X floatatom 328 217 5 0 0 0 - - - 0;
#X floatatom 324 170 5 0 0 0 - - - 0;
#X msg 281 114 draw line;
#X obj 418 120 osc~ 0.1;
#X obj 418 144 env~;
#X floatatom 418 168 5 0 0 0 - - - 0;
#X obj 418 191 / 100;
#X obj 492 147 env~;
#X floatatom 492 171 5 0 0 0 - - - 0;
#X floatatom 492 218 5 0 0 0 - - - 0;
#X obj 492 123 phasor~ 0.5;
#X obj 492 194 - 70;
#X obj 380 330 gemhead;
#X floatatom 509 384 5 0 0 0 - - - 0;
#X floatatom 505 337 5 0 0 0 - - - 0;
#X msg 462 281 draw line;
#X obj 599 287 osc~ 0.1;
#X obj 599 311 env~;
#X floatatom 599 335 5 0 0 0 - - - 0;
#X obj 599 358 / 100;
#X obj 673 314 env~;
#X floatatom 673 338 5 0 0 0 - - - 0;
#X floatatom 673 385 5 0 0 0 - - - 0;
#X obj 673 361 - 70;
#X obj 458 488 square;
#X obj 393 379 color 1 0 0;
#X obj 62 269 r g-hh;
#X obj 277 321 circle;
#X obj 144 241 color 0.9 0.8 0;
#X obj 673 290 phasor~ 440;
#X obj 281 411 r g-ss;
#X obj 146 214 translateXYZ -2 2 0;
#X connect 0 0 1 0;
#X connect 1 0 2 0;
#X connect 3 0 4 0;
#X connect 6 0 40 0;
#X connect 7 0 8 0;
#X connect 12 0 13 0;
#X connect 13 0 14 0;
#X connect 14 0 15 0;
#X connect 15 0 10 0;
#X connect 16 0 17 0;
#X connect 17 0 20 0;
#X connect 19 0 16 0;
#X connect 20 0 9 0;
#X connect 20 0 18 0;
#X connect 21 0 34 0;
#X connect 23 0 33 1;
#X connect 23 0 34 1;
#X connect 24 0 33 0;
#X connect 25 0 26 0;
#X connect 26 0 27 0;
#X connect 27 0 28 0;
#X connect 28 0 23 0;
#X connect 29 0 30 0;
#X connect 30 0 32 0;
#X connect 32 0 22 0;
#X connect 32 0 31 0;
#X connect 34 0 33 0;
#X connect 35 0 6 0;
#X connect 38 0 29 0;
#X connect 39 0 21 0;
#X connect 40 0 37 0;
