#N canvas 0 25 1377 760 12;
#X listbox 42 76 20 0 0 0 - - - 0;
#X msg 46 26 symbol banana;
#X obj 593 17 sampLoader hihat.wav hh;
#X obj 594 73 sampLoader kick.wav kick;
#X obj 156 1085 catch~ out;
#N canvas 900 66 450 300 player-manager 0;
#X obj 144 92 r find-player;
#X obj 144 116 t b a, f 17;
#X obj 144 140 f;
#X obj 181 140 + 1;
#X obj 144 164 mod 64;
#X floatatom 144 188 5 0 0 0 - - - 0;
#X obj 166 221 pack f f s f, f 18;
#X obj 261 157 unpack f s f;
#X msg 166 245 \; play-\$1 \$2 \$3 \$4;
#X connect 0 0 1 0;
#X connect 1 0 2 0;
#X connect 1 1 7 0;
#X connect 2 0 3 0;
#X connect 2 0 4 0;
#X connect 3 0 2 1;
#X connect 4 0 5 0;
#X connect 5 0 6 0;
#X connect 6 0 8 0;
#X connect 7 0 6 1;
#X connect 7 1 6 2;
#X connect 7 2 6 3;
#X restore 25 1024 pd player-manager;
#X obj 26 1055 clone samp-player 64;
#X obj 155 1117 dac~;
#X msg 33 1112 1 hh 1;
#X obj 33 1136 s find-player;
#N canvas 461 349 622 368 algorithm 0;
#X obj 115 70 metro 100;
#X obj 115 94 f;
#X obj 163 95 + 1;
#X obj 115 118 mod 8;
#X obj 113 30 tgl 19 0 empty empty empty 0 -10 0 12 #fcfcfc #000000 #000000 0 1;
#X floatatom 115 142 5 0 0 0 - - - 0;
#X obj 115 165 sel 0;
#X msg 115 202 1;
#X msg 162 202 0.5;
#X msg 115 226 1 hh \$1;
#X floatatom 172 27 5 0 0 0 - - - 0;
#X obj 339 30 tgl 19 0 empty empty empty 0 -10 0 12 #fcfcfc #000000 #000000 0 1;
#X floatatom 398 27 5 0 0 0 - - - 0;
#X obj 341 70 metro 250;
#X obj 341 94 random 3;
#X floatatom 341 118 5 0 0 0 - - - 0;
#X obj 341 152 sel 0 1 2;
#X msg 321 181 hh;
#X msg 359 183 ss;
#X msg 402 184 kick;
#X obj 359 230 symbol;
#X msg 359 254 1 \$1 1;
#X obj 359 278 s find-player;
#X obj 115 250 s find-player;
#X connect 0 0 1 0;
#X connect 1 0 2 0;
#X connect 1 0 3 0;
#X connect 2 0 1 1;
#X connect 3 0 5 0;
#X connect 4 0 0 0;
#X connect 5 0 6 0;
#X connect 6 0 7 0;
#X connect 6 1 8 0;
#X connect 7 0 9 0;
#X connect 9 0 23 0;
#X connect 10 0 0 1;
#X connect 11 0 13 0;
#X connect 12 0 13 1;
#X connect 13 0 14 0;
#X connect 14 0 15 0;
#X connect 15 0 16 0;
#X connect 16 0 17 0;
#X connect 16 1 18 0;
#X connect 16 2 19 0;
#X connect 17 0 20 0;
#X connect 18 0 20 0;
#X connect 19 0 20 0;
#X connect 20 0 21 0;
#X connect 21 0 22 0;
#X restore 44 1172 pd algorithm;
#X obj 175 176 tgl 40 0 empty empty empty 0 -10 0 12 #faff00 #000000 #000000 0 1;
#X obj 175 248 metro 500;
#X obj 175 272 f;
#X obj 213 273 + 1;
#X floatatom 175 320 5 0 0 0 - - - 0;
#X floatatom 26 270 5 0 0 0 - - - 0;
#X obj 26 246 tabread hihat-seq;
#X obj 26 293 sel 1;
#X msg 26 317 \; find-player 1 hh 1;
#X floatatom 280 248 5 0 0 0 - - - 0;
#X floatatom 23 409 5 0 0 0 - - - 0;
#X obj 23 432 sel 1;
#X floatatom 181 415 5 0 0 0 - - - 0;
#X obj 181 438 sel 1;
#X msg 23 456 \; find-player 1 ss 1;
#X obj 181 391 tabread kick-seq;
#X msg 181 462 \; find-player 1 kick 1;
#X obj 717 225 16-sec hihat;
#X obj 716 477 16-sec kick;
#X obj 716 138 16-sec Jungle-Juice;
#X obj 348 18 sampLoader Jungle-Juice.wav jj;
#X floatatom 410 292 5 0 0 0 - - - 0;
#X obj 410 315 sel 1;
#X msg 410 339 \; find-player 1 jj 1;
#X obj 410 268 tabread Jungle-Juice-seq;
#X obj 221 225 s global-gain;
#X obj 91 277 s g-hh;
#X obj 90 416 s g-ss;
#X obj 485 296 s g-jj;
#X obj 233 420 s g-kick;
#X obj 175 296 mod 16;
#X obj 595 42 sampLoader newSnare.wav ss;
#X obj 23 385 tabread newSnare-seq;
#X obj 716 309 16-sec newSnare;
#X obj 712 573 16-sec cowbell;
#X obj 712 654 16-sec jamBlock;
#X obj 718 733 16-sec crashCymbal;
#X obj 714 391 16-sec snareRimShot;
#X floatatom 223 537 5 0 0 0 - - - 0;
#X obj 223 560 sel 1;
#X floatatom 374 536 5 0 0 0 - - - 0;
#X obj 374 559 sel 1;
#X floatatom 382 419 5 0 0 0 - - - 0;
#X obj 382 442 sel 1;
#X obj 223 513 tabread cowbell-seq;
#X obj 298 541 s g-cb;
#X msg 223 584 \; find-player 1 cb 1;
#X obj 374 512 tabread jamBlock-seq;
#X obj 449 540 s g-jb;
#X msg 374 583 \; find-player 1 jb 1;
#X obj 382 395 tabread crashCymbal-seq;
#X obj 457 423 s g-cc;
#X msg 382 466 \; find-player 1 cc 1;
#X obj 800 9 sampLoader cowbell.wav cb;
#X obj 800 31 sampLoader crashCymbal.wav cc;
#X obj 803 53 sampLoader jamBlock.wav jb;
#X obj 805 87 sampLoader snareRimShot.wav rs;
#X floatatom 37 534 5 0 0 0 - - - 0;
#X obj 37 557 sel 1;
#X obj 37 510 tabread snareRimShot-seq;
#X obj 112 538 s g-rs;
#X msg 37 581 \; find-player 1 rs 1;
#X obj 175 343 t f f f f f f f f;
#X connect 1 0 0 0;
#X connect 4 0 7 0;
#X connect 8 0 9 0;
#X connect 11 0 12 0;
#X connect 11 0 36 0;
#X connect 12 0 13 0;
#X connect 13 0 14 0;
#X connect 13 0 41 0;
#X connect 14 0 13 1;
#X connect 15 0 73 0;
#X connect 16 0 18 0;
#X connect 16 0 37 0;
#X connect 17 0 16 0;
#X connect 18 0 19 0;
#X connect 20 0 12 1;
#X connect 21 0 22 0;
#X connect 21 0 38 0;
#X connect 22 0 25 0;
#X connect 23 0 24 0;
#X connect 23 0 40 0;
#X connect 24 0 27 0;
#X connect 26 0 23 0;
#X connect 32 0 33 0;
#X connect 32 0 39 0;
#X connect 33 0 34 0;
#X connect 35 0 32 0;
#X connect 41 0 15 0;
#X connect 43 0 21 0;
#X connect 49 0 50 0;
#X connect 49 0 56 0;
#X connect 50 0 57 0;
#X connect 51 0 52 0;
#X connect 51 0 59 0;
#X connect 52 0 60 0;
#X connect 53 0 54 0;
#X connect 53 0 62 0;
#X connect 54 0 63 0;
#X connect 55 0 49 0;
#X connect 58 0 51 0;
#X connect 61 0 53 0;
#X connect 68 0 69 0;
#X connect 68 0 71 0;
#X connect 69 0 72 0;
#X connect 70 0 68 0;
#X connect 73 0 17 0;
#X connect 73 1 43 0;
#X connect 73 2 26 0;
#X connect 73 3 70 0;
#X connect 73 4 55 0;
#X connect 73 5 58 0;
#X connect 73 6 35 0;
#X connect 73 7 61 0;
