#N canvas 483 187 649 608 12;
#X obj 270 276 array size;
#X obj 269 233 bng 19 250 50 0 empty empty empty 0 -10 0 12 #fcfcfc #000000 #000000;
#X floatatom 270 300 5 0 0 0 - - - 0;
#X obj 45 16 r play-\$1;
#X obj 42 55 unpack f s f, f 67;
#X floatatom 509 103 5 0 0 0 - - - 0;
#X obj 40 398 tabread4~;
#X obj 263 120 t s s;
#X msg 158 307 set \$1;
#X listbox 272 84 20 0 0 0 - - - 0;
#X obj 266 174 t b s;
#X obj 509 126 t f b;
#X obj 472 157 pack f 3;
#X msg 584 153 0;
#X obj 507 207 line~;
#X obj 325 516 *~;
#X obj 329 584 throw~ out;
#X obj 270 323 t f f;
#X obj 299 352 / 44.1;
#X floatatom 299 376 5 0 0 0 - - - 0;
#X obj 297 409 s \$0-dur;
#X obj 265 449 s \$0-size;
#X floatatom 42 79 5 0 0 0 - - - 0;
#X obj 42 127 *;
#X msg 42 151 0 \, 1 \$1;
#X obj 42 175 line~;
#X obj 85 103 r \$0-dur;
#X obj 42 199 *~;
#X obj 95 181 r \$0-size;
#X obj 95 205 - 3;
#X obj 44 227 +~ 1;
#X msg 138 25 1 ss 0.9;
#X obj 448 459 r global-gain;
#X obj 330 549 *~;
#X connect 0 0 2 0;
#X connect 1 0 0 0;
#X connect 2 0 17 0;
#X connect 3 0 4 0;
#X connect 4 0 22 0;
#X connect 4 1 9 0;
#X connect 4 2 5 0;
#X connect 5 0 11 0;
#X connect 6 0 15 0;
#X connect 7 0 8 0;
#X connect 7 1 10 0;
#X connect 8 0 6 0;
#X connect 9 0 7 0;
#X connect 10 0 1 0;
#X connect 10 1 0 1;
#X connect 11 0 12 0;
#X connect 11 1 13 0;
#X connect 12 0 14 0;
#X connect 13 0 14 0;
#X connect 14 0 15 1;
#X connect 15 0 33 0;
#X connect 17 0 21 0;
#X connect 17 1 18 0;
#X connect 18 0 19 0;
#X connect 19 0 20 0;
#X connect 22 0 23 0;
#X connect 23 0 24 0;
#X connect 24 0 25 0;
#X connect 25 0 27 0;
#X connect 26 0 23 1;
#X connect 27 0 30 0;
#X connect 28 0 29 0;
#X connect 29 0 27 1;
#X connect 30 0 6 0;
#X connect 31 0 4 0;
#X connect 32 0 33 1;
#X connect 33 0 16 0;
