#N canvas 361 243 754 457 12;
#X obj 42 198 bng 19 250 50 0 empty empty empty 0 -10 0 12 #fcfcfc #000000 #000000;
#X obj 42 222 symbol \$1;
#X listbox 42 246 20 0 0 0 - - - 0;
#X obj 300 195 bng 19 250 50 0 empty empty empty 0 -10 0 12 #fcfcfc #000000 #000000;
#X listbox 300 243 20 0 0 0 - - - 0;
#X obj 300 219 symbol \$2;
#X obj 123 81 bng 19 250 50 0 empty empty empty 0 -10 0 12 #fcfcfc #000000 #000000;
#X obj 123 105 t b b;
#X obj 138 305 pack s s;
#X obj 138 377 soundfiler;
#X obj 247 30 array define \$2;
#X obj 121 29 loadbang;
#X listbox 138 377 20 0 0 0 - - - 0;
#X msg 138 353 read -resize ./samples/\$1 \$2;
#X connect 0 0 1 0;
#X connect 1 0 2 0;
#X connect 2 0 8 0;
#X connect 3 0 5 0;
#X connect 4 0 8 1;
#X connect 5 0 4 0;
#X connect 6 0 7 0;
#X connect 7 0 0 0;
#X connect 7 1 3 0;
#X connect 8 0 13 0;
#X connect 11 0 6 0;
#X connect 13 0 9 0;
#X connect 13 0 12 0;
