#N canvas 227 25 1213 770 12;
#X declare -lib Gem;
#X obj 64 64 adc~;
#X obj 64 88 env~;
#X obj 64 112 *~ 100;
#X obj 27 118 f;
#X obj 27 142 s radius;
#X msg 253 30 create \, 1;
#X obj 253 54 gemwin;
#X floatatom 673 114 5 0 0 0 - - - 0;
#X floatatom 669 67 5 0 0 0 - - - 0;
#X msg 402 477 draw line;
#X obj 763 17 osc~ 0.1;
#X obj 763 41 env~;
#X floatatom 763 65 5 0 0 0 - - - 0;
#X obj 763 88 / 100;
#X obj 837 44 env~;
#X floatatom 837 68 5 0 0 0 - - - 0;
#X floatatom 837 115 5 0 0 0 - - - 0;
#X obj 837 20 phasor~ 0.5;
#X obj 837 91 - 70;
#X floatatom 920 614 5 0 0 0 - - - 0;
#X floatatom 916 567 5 0 0 0 - - - 0;
#X msg 569 466 draw line;
#X obj 1010 541 env~;
#X floatatom 1010 565 5 0 0 0 - - - 0;
#X obj 1010 588 / 100;
#X obj 1084 544 env~;
#X floatatom 1084 568 5 0 0 0 - - - 0;
#X floatatom 1084 615 5 0 0 0 - - - 0;
#X obj 1084 591 - 70;
#X obj 368 351 r g-hh;
#X obj 369 510 circle;
#X obj 1084 520 phasor~ 440;
#X obj 539 352 r g-ss;
#X obj 93 11 declare -lib Gem;
#X obj 41 24 Gem;
#X obj 368 381 gemhead;
#X obj 540 382 gemhead;
#X obj 1010 517 osc~ 0.5;
#X obj 543 436 color 1 0 0;
#X msg 737 456 draw line;
#X obj 703 367 gemhead;
#X obj 706 484 triangle;
#X obj 705 425 color 0 1 0;
#X obj 367 441 color 1 1 0;
#X obj 40 336 gemhead;
#X obj 39 398 part_head;
#X obj 39 422 part_size 1.5;
#X floatatom 132 388 5 0 0 0 - - - 0;
#X obj 39 446 part_source 2;
#X obj 39 470 part_velocity blob 0 0 0 0.5;
#X obj 39 494 part_killold 5;
#X obj 38 552 part_color;
#X obj 38 576 part_render;
#X obj 38 600 rectangle;
#X obj 154 495 loadbang;
#X msg 154 523 1 2 2;
#X msg 216 523 0.1 0.3 1;
#X obj 369 414 translateXYZ -5 2 0;
#X obj 546 498 square;
#X obj 540 411 translateXYZ -3 0 0;
#X obj 696 335 r g-kick;
#X obj 703 395 translateXYZ -0.5 -1.5 0;
#X obj 369 552 r g-rs;
#X obj 465 53 r g-cb;
#X obj 559 545 r g-cc;
#X obj 754 549 r g-jb;
#X obj 41 359 translateXYZ 0 0 0;
#X msg 403 684 draw line;
#X obj 370 717 circle;
#X obj 369 588 gemhead;
#X msg 530 19 draw line;
#X obj 466 89 gemhead;
#X msg 591 681 draw line;
#X obj 558 714 circle;
#X obj 557 585 gemhead;
#X obj 556 645 color 1 1 0;
#X msg 790 686 draw line;
#X obj 756 590 gemhead;
#X obj 368 648 color 0 0 1;
#X obj 528 243 sphere;
#X obj 757 719 square;
#X obj 757 623 translateXYZ 2 -2 0;
#X obj 755 650 color 0.3 0 1;
#X obj 370 621 translateXYZ -3 0 0;
#X obj 558 618 translateXYZ 3 2 0;
#X obj 467 122 translateXYZ 5.5 -2 -1;
#X obj 533 204 rotateXYZ;
#X obj 465 149 color 0 1 1;
#X text 30 633 credit to Sound Simulator via YouTube;
#X obj 40 312 r g-jb;
#X connect 0 0 1 0;
#X connect 1 0 2 0;
#X connect 3 0 4 0;
#X connect 5 0 6 0;
#X connect 7 0 86 1;
#X connect 7 0 79 2;
#X connect 8 0 79 1;
#X connect 9 0 30 0;
#X connect 10 0 11 0;
#X connect 11 0 12 0;
#X connect 12 0 13 0;
#X connect 13 0 8 0;
#X connect 14 0 15 0;
#X connect 15 0 18 0;
#X connect 15 0 86 2;
#X connect 17 0 14 0;
#X connect 18 0 7 0;
#X connect 18 0 16 0;
#X connect 20 0 82 1;
#X connect 20 0 80 1;
#X connect 21 0 58 0;
#X connect 22 0 23 0;
#X connect 23 0 24 0;
#X connect 24 0 20 0;
#X connect 25 0 26 0;
#X connect 26 0 28 0;
#X connect 28 0 19 0;
#X connect 28 0 27 0;
#X connect 29 0 35 0;
#X connect 31 0 25 0;
#X connect 32 0 36 0;
#X connect 35 0 57 0;
#X connect 36 0 59 0;
#X connect 37 0 22 0;
#X connect 38 0 58 0;
#X connect 39 0 41 0;
#X connect 40 0 61 0;
#X connect 42 0 41 0;
#X connect 43 0 30 0;
#X connect 44 0 66 0;
#X connect 45 0 46 0;
#X connect 46 0 48 0;
#X connect 47 0 46 1;
#X connect 48 0 49 0;
#X connect 49 0 50 0;
#X connect 50 0 51 0;
#X connect 51 0 52 0;
#X connect 52 0 53 0;
#X connect 54 0 55 0;
#X connect 54 0 56 0;
#X connect 55 0 51 2;
#X connect 56 0 51 1;
#X connect 57 0 43 0;
#X connect 59 0 38 0;
#X connect 60 0 40 0;
#X connect 61 0 42 0;
#X connect 62 0 69 0;
#X connect 63 0 71 0;
#X connect 64 0 74 0;
#X connect 65 0 77 0;
#X connect 66 0 45 0;
#X connect 67 0 68 0;
#X connect 69 0 83 0;
#X connect 70 0 79 0;
#X connect 71 0 85 0;
#X connect 72 0 73 0;
#X connect 74 0 84 0;
#X connect 75 0 73 0;
#X connect 76 0 80 0;
#X connect 77 0 81 0;
#X connect 78 0 68 0;
#X connect 81 0 82 0;
#X connect 82 0 80 0;
#X connect 83 0 78 0;
#X connect 84 0 75 0;
#X connect 85 0 87 0;
#X connect 86 0 79 0;
#X connect 87 0 86 0;
#X connect 89 0 44 0;
